<svg width="19" height="17" viewBox="0 0 19 17" fill="none" xmlns="http://www.w3.org/2000/svg">
<path d="M2 17.001H0C0 13.6873 2.68629 11.001 6 11.001C9.31371 11.001 12 13.6873 12 17.001H10C10 14.7919 8.20914 13.001 6 13.001C3.79086 13.001 2 14.7919 2 17.001ZM16.364 13.364L14.95 11.95C16.2629 10.6372 17.0005 8.85664 17.0005 7C17.0005 5.14336 16.2629 3.36278 14.95 2.05L16.364 0.636002C19.8781 4.15061 19.8781 9.84839 16.364 13.363V13.364ZM13.535 10.536L12.121 9.12C13.2908 7.94873 13.2908 6.05127 12.121 4.88L13.535 3.463C15.4876 5.41562 15.4876 8.58139 13.535 10.534V10.536ZM6 10C3.79086 10 2 8.20914 2 6C2 3.79086 3.79086 2 6 2C8.20914 2 10 3.79086 10 6C10 7.06087 9.57857 8.07828 8.82843 8.82843C8.07828 9.57858 7.06087 10 6 10ZM6 4C4.9074 4.00111 4.01789 4.87885 4.00223 5.97134C3.98658 7.06383 4.85057 7.9667 5.94269 7.99912C7.03481 8.03154 7.95083 7.1815 8 6.09V6.49V6C8 4.89543 7.10457 4 6 4Z" fill="#F75532"/>
</svg>
