<svg width="20" height="20" viewBox="0 0 20 20" fill="none" xmlns="http://www.w3.org/2000/svg">
<path d="M9.99 20C4.46846 19.9945 -0.00367557 15.5149 2.26684e-06 9.99334C0.00368465 4.4718 4.48179 -0.00182991 10.0033 8.19562e-06C15.5249 0.00184744 20 4.47846 20 10C19.9967 15.5254 15.5154 20.0022 9.99 20ZM2 10.172C2.04732 14.5732 5.64111 18.1095 10.0425 18.086C14.444 18.0622 17.9995 14.4875 17.9995 10.086C17.9995 5.68451 14.444 2.10978 10.0425 2.086C5.64111 2.06246 2.04732 5.59876 2 10V10.172ZM11 15H9V13H11V15ZM11 11H9V5H11V11Z" fill="#F75532"/>
</svg>
