<svg width="18" height="18" viewBox="0 0 18 18" fill="none" xmlns="http://www.w3.org/2000/svg">
<path d="M5.05135 14.8285L5.70486 15.1778C6.71761 15.7193 7.8486 16.0017 8.99699 16L9.00001 16C12.8661 16 16 12.8661 16 9C16 5.13387 12.8661 2 9.00001 2C5.13388 2 2.00001 5.13387 2.00001 9V9.00301C1.99828 10.1514 2.28073 11.2824 2.82217 12.2951L3.17155 12.9486L2.63433 15.3657L5.05135 14.8285ZM1.01578e-05 18L1.05841 13.2381C0.361389 11.9343 -0.00221566 10.4784 1.01578e-05 9C1.01578e-05 4.0293 4.02931 0 9.00001 0C13.9707 0 18 4.0293 18 9C18 13.9707 13.9707 18 9.00001 18C7.52162 18.0022 6.06566 17.6386 4.76191 16.9416L1.01578e-05 18Z" fill="#F75532"/>
</svg>
