<svg width="18" height="20" viewBox="0 0 18 20" fill="none" xmlns="http://www.w3.org/2000/svg">
<path d="M15.4167 19.1667H2.58333C1.57081 19.1667 0.75 18.3459 0.75 17.3333V4.50001C0.75 3.48749 1.57081 2.66668 2.58333 2.66668H4.41667V0.833344H6.25V2.66668H11.75V0.833344H13.5833V2.66668H15.4167C16.4292 2.66668 17.25 3.48749 17.25 4.50001V17.3333C17.25 18.3459 16.4292 19.1667 15.4167 19.1667ZM2.58333 8.16668V17.3333H15.4167V8.16668H2.58333ZM2.58333 4.50001V6.33334H15.4167V4.50001H2.58333ZM8.08333 15.8795L4.68525 12.4814L5.98142 11.1853L8.08333 13.2872L12.0186 9.35193L13.3148 10.6481L8.08333 15.8786V15.8795Z" fill="#F75532"/>
</svg>
